<svg width="86" height="73" viewBox="0 0 86 73" fill="none" xmlns="http://www.w3.org/2000/svg">
<path d="M52.5189 52C51.0917 52.0026 49.7025 51.505 48.5607 50.5822L48.4899 50.525L33.5811 38.2333C32.1916 37.0791 31.2835 35.3782 31.056 33.5035C30.8285 31.6288 31.3001 29.7333 32.3674 28.2328C33.4347 26.7324 35.0106 25.7493 36.7495 25.4994C38.4883 25.2494 40.2482 25.7529 41.6431 26.8995L51.2998 34.8806L74.119 2.79496C74.6482 2.05108 75.3081 1.42681 76.0611 0.957791C76.8141 0.488775 77.6454 0.184202 78.5076 0.0614594C79.3698 -0.0612835 80.246 0.000217196 81.0861 0.242434C81.9263 0.484651 82.714 0.902841 83.4042 1.47314L83.4061 1.47469L83.2645 1.68664L83.4099 1.47469C84.8024 2.6281 85.7134 4.32977 85.943 6.20629C86.1727 8.08281 85.7022 9.98087 84.6349 11.484L57.7945 49.2068C57.1735 50.076 56.3751 50.7793 55.4612 51.2623C54.5473 51.7452 53.5425 51.9947 52.5247 51.9915L52.5189 52Z" fill="#724CF9"/>
<path d="M76.5338 72.1584H0.972336C0.914186 72.1584 0.858418 72.1338 0.8173 72.09C0.776182 72.0461 0.753082 71.9867 0.753082 71.9247V10.2337C0.753082 10.1717 0.776182 10.1123 0.8173 10.0684C0.858418 10.0246 0.914186 10 0.972336 10H38.7531C38.8112 10 38.867 10.0246 38.9081 10.0684C38.9492 10.1123 38.9723 10.1717 38.9723 10.2337C38.9723 10.2957 38.9492 10.3551 38.9081 10.3989C38.867 10.4427 38.8112 10.4674 38.7531 10.4674H1.19159V71.6911H76.3146V41.0792C76.3146 41.0172 76.3377 40.9578 76.3788 40.914C76.4199 40.8701 76.4757 40.8455 76.5338 40.8455C76.592 40.8455 76.6477 40.8701 76.6889 40.914C76.73 40.9578 76.7531 41.0172 76.7531 41.0792V71.9247C76.7531 71.9867 76.73 72.0461 76.6889 72.09C76.6477 72.1338 76.592 72.1584 76.5338 72.1584Z" fill="#3F3D56"/>
</svg>
