<svg width="301" height="63" viewBox="0 0 301 63" fill="none" xmlns="http://www.w3.org/2000/svg">
<path d="M39.9423 42.3224C39.3182 42.3236 38.7107 42.1084 38.2114 41.7094L38.1805 41.6846L31.661 36.3693C31.0534 35.8702 30.6563 35.1347 30.5568 34.324C30.4573 33.5133 30.6635 32.6937 31.1302 32.0448C31.597 31.396 32.2861 30.9709 33.0465 30.8628C33.8069 30.7547 34.5765 30.9724 35.1864 31.4682L39.4092 34.9195L49.3879 21.0447C49.6193 20.7231 49.9079 20.4531 50.2371 20.2503C50.5664 20.0475 50.9299 19.9158 51.307 19.8627C51.684 19.8096 52.0672 19.8362 52.4345 19.941C52.8019 20.0457 53.1464 20.2265 53.4482 20.4732L53.449 20.4738L53.3871 20.5655L53.4507 20.4738C54.0596 20.9726 54.458 21.7084 54.5584 22.5199C54.6589 23.3314 54.4531 24.1521 53.9864 24.8021L42.2493 41.1146C41.9777 41.4905 41.6286 41.7946 41.229 42.0034C40.8294 42.2123 40.3899 42.3202 39.9449 42.3188L39.9423 42.3224Z" fill="#724CF9"/>
<path d="M76.5338 62.1584H0.972336C0.914186 62.1584 0.858418 62.1338 0.8173 62.09C0.776182 62.0461 0.753082 61.9867 0.753082 61.9247V0.233678C0.753082 0.171703 0.776182 0.112266 0.8173 0.0684426C0.858418 0.0246194 0.914186 0 0.972336 0H38.7531C38.8112 0 38.867 0.0246194 38.9081 0.0684426C38.9492 0.112266 38.9723 0.171703 38.9723 0.233678C38.9723 0.295654 38.9492 0.355091 38.9081 0.398914C38.867 0.442737 38.8112 0.467356 38.7531 0.467356H1.19159V61.6911H76.3146V31.0792C76.3146 31.0172 76.3377 30.9578 76.3788 30.914C76.4199 30.8701 76.4757 30.8455 76.5338 30.8455C76.592 30.8455 76.6477 30.8701 76.6889 30.914C76.73 30.9578 76.7531 31.0172 76.7531 31.0792V61.9247C76.7531 61.9867 76.73 62.0461 76.6889 62.09C76.6477 62.1338 76.592 62.1584 76.5338 62.1584Z" fill="#3F3D56"/>
<path d="M129.389 27.0909H120.176C120.111 26.3286 119.937 25.6371 119.653 25.0163C119.381 24.3956 119 23.862 118.51 23.4155C118.031 22.9581 117.448 22.6096 116.762 22.37C116.076 22.1196 115.297 21.9943 114.426 21.9943C112.902 21.9943 111.611 22.3646 110.555 23.1051C109.509 23.8456 108.714 24.9074 108.17 26.2905C107.636 27.6735 107.369 29.3343 107.369 31.2727C107.369 33.3201 107.642 35.0353 108.186 36.4183C108.741 37.7905 109.542 38.825 110.587 39.522C111.633 40.2081 112.891 40.5511 114.361 40.5511C115.199 40.5511 115.951 40.4477 116.615 40.2408C117.279 40.023 117.857 39.7126 118.347 39.3097C118.837 38.9067 119.234 38.4221 119.539 37.8558C119.855 37.2786 120.067 36.6307 120.176 35.9119L129.389 35.9773C129.28 37.393 128.883 38.8359 128.197 40.3061C127.511 41.7654 126.536 43.1158 125.273 44.3572C124.02 45.5878 122.469 46.5788 120.617 47.3303C118.766 48.0817 116.615 48.4574 114.165 48.4574C111.094 48.4574 108.339 47.7985 105.899 46.4808C103.471 45.1631 101.549 43.2247 100.133 40.6655C98.728 38.1063 98.0256 34.9754 98.0256 31.2727C98.0256 27.5483 98.7443 24.4119 100.182 21.8636C101.619 19.3044 103.558 17.3714 105.997 16.0646C108.437 14.7469 111.159 14.0881 114.165 14.0881C116.277 14.0881 118.221 14.3767 119.996 14.9538C121.772 15.531 123.329 16.375 124.668 17.4858C126.008 18.5857 127.086 19.9415 127.903 21.5533C128.719 23.165 129.215 25.0109 129.389 27.0909ZM142.657 33.8864V48H133.64V14.5455H142.331V27.679H142.592C143.158 26.0781 144.1 24.8312 145.418 23.9382C146.736 23.0343 148.32 22.5824 150.172 22.5824C151.947 22.5824 153.488 22.9853 154.795 23.7912C156.112 24.5971 157.131 25.7079 157.849 27.1236C158.579 28.5393 158.938 30.1619 158.927 31.9915V48H149.91V33.8864C149.921 32.6449 149.611 31.6702 148.979 30.9624C148.358 30.2545 147.471 29.9006 146.317 29.9006C145.587 29.9006 144.944 30.0639 144.389 30.3906C143.845 30.7064 143.42 31.1638 143.115 31.7628C142.821 32.3509 142.668 33.0587 142.657 33.8864ZM175.401 48.4574C172.722 48.4574 170.414 47.9455 168.475 46.9219C166.548 45.8873 165.061 44.4062 164.016 42.4787C162.981 40.5402 162.464 38.2206 162.464 35.5199C162.464 32.928 162.987 30.6629 164.032 28.7244C165.078 26.786 166.553 25.2777 168.459 24.1996C170.365 23.1214 172.614 22.5824 175.205 22.5824C177.1 22.5824 178.816 22.8764 180.351 23.4645C181.887 24.0526 183.199 24.9074 184.288 26.0291C185.377 27.1399 186.215 28.4903 186.803 30.0803C187.392 31.6702 187.686 33.4616 187.686 35.4545V37.5455H165.274V32.5795H179.387C179.376 31.8608 179.191 31.2292 178.832 30.6847C178.483 30.1293 178.01 29.6991 177.411 29.3942C176.823 29.0784 176.153 28.9205 175.401 28.9205C174.672 28.9205 174.002 29.0784 173.392 29.3942C172.782 29.6991 172.292 30.1238 171.922 30.6683C171.563 31.2128 171.372 31.8499 171.35 32.5795V37.9375C171.35 38.7434 171.519 39.4621 171.857 40.0938C172.194 40.7254 172.679 41.2209 173.311 41.5803C173.942 41.9396 174.704 42.1193 175.597 42.1193C176.218 42.1193 176.785 42.0322 177.296 41.858C177.819 41.6837 178.266 41.4332 178.636 41.1065C179.006 40.7689 179.278 40.366 179.453 39.8977H187.686C187.402 41.6402 186.733 43.1539 185.676 44.4389C184.62 45.7131 183.221 46.7041 181.478 47.4119C179.747 48.1089 177.721 48.4574 175.401 48.4574ZM203.453 48.4574C200.731 48.4574 198.4 47.9183 196.462 46.8402C194.523 45.7512 193.037 44.2375 192.002 42.299C190.968 40.3497 190.45 38.09 190.45 35.5199C190.45 32.9498 190.968 30.6955 192.002 28.7571C193.037 26.8078 194.523 25.294 196.462 24.2159C198.4 23.1269 200.731 22.5824 203.453 22.5824C205.914 22.5824 208.043 23.0289 209.84 23.9219C211.648 24.804 213.047 26.0563 214.038 27.679C215.029 29.2907 215.53 31.1856 215.541 33.3636H207.178C207.058 32.0459 206.677 31.044 206.034 30.358C205.402 29.661 204.586 29.3125 203.584 29.3125C202.8 29.3125 202.114 29.5412 201.526 29.9986C200.938 30.4451 200.48 31.1257 200.153 32.0405C199.827 32.9444 199.663 34.0824 199.663 35.4545C199.663 36.8267 199.827 37.9702 200.153 38.8849C200.48 39.7888 200.938 40.4695 201.526 40.9268C202.114 41.3733 202.8 41.5966 203.584 41.5966C204.248 41.5966 204.836 41.4441 205.348 41.1392C205.86 40.8234 206.274 40.366 206.589 39.767C206.916 39.1572 207.112 38.4167 207.178 37.5455H215.541C215.509 39.7562 215.002 41.6837 214.022 43.3281C213.042 44.9616 211.653 46.2249 209.857 47.1179C208.071 48.0109 205.936 48.4574 203.453 48.4574ZM227.364 42.054L227.429 31.3381H228.605L234.682 22.9091H244.81L234.617 36.0426H232.068L227.364 42.054ZM219.262 48V14.5455H228.279V48H219.262ZM234.747 48L228.997 38.0682L234.878 31.6648L245.071 48H234.747ZM265.274 14.5455V48H256.191V14.5455H265.274ZM284.672 22.9091V29.4432H268.141V22.9091H284.672ZM271.342 16.8977H280.359V39.9304C280.359 40.2789 280.419 40.5729 280.539 40.8125C280.659 41.0412 280.844 41.2154 281.094 41.3352C281.345 41.4441 281.666 41.4986 282.058 41.4986C282.33 41.4986 282.646 41.4659 283.006 41.4006C283.376 41.3352 283.648 41.2808 283.822 41.2372L285.129 47.5753C284.726 47.6951 284.149 47.8421 283.398 48.0163C282.657 48.1906 281.775 48.3049 280.751 48.3594C278.682 48.4683 276.945 48.2559 275.54 47.7223C274.136 47.1778 273.079 46.3229 272.371 45.1577C271.664 43.9924 271.321 42.5331 271.342 40.7798V16.8977Z" fill="#724CF9"/>
</svg>
